<?xml version="1.0" standalone="no"?><!DOCTYPE svg PUBLIC "-//W3C//DTD SVG 1.1//EN" "http://www.w3.org/Graphics/SVG/1.1/DTD/svg11.dtd"><svg t="1717297636074" class="icon" viewBox="0 0 1024 1024" version="1.1" xmlns="http://www.w3.org/2000/svg" p-id="6559" xmlns:xlink="http://www.w3.org/1999/xlink" width="200" height="200"><path d="M682.667 96c17.496 0 31.713 14.042 31.995 31.47l0.005 0.53v160H896c18.418 0 32.993 15.496 31.949 33.808l-0.036 0.556-42.667 576c-1.226 16.543-14.88 29.377-31.41 29.632l-0.503 0.004H170.667c-16.589 0-30.396-12.669-31.872-29.136l-0.04-0.5-42.668-576c-1.36-18.368 13.017-34.048 31.356-34.36L128 288h181.333V128c0-17.496 14.042-31.713 31.471-31.996l0.53-0.004h341.333z m0 597.333H341.333l-0.529 0.005c-17.429 0.282-31.47 14.499-31.47 31.995 0 17.673 14.326 32 32 32h341.333l0.529-0.004c17.429-0.283 31.47-14.5 31.47-31.996 0-17.673-14.326-32-32-32zM650.666 160H373.333v128h277.333V160z" p-id="6560" fill="#1296db"></path></svg>