<?xml version="1.0" standalone="no"?><!DOCTYPE svg PUBLIC "-//W3C//DTD SVG 1.1//EN" "http://www.w3.org/Graphics/SVG/1.1/DTD/svg11.dtd"><svg t="1714560641090" class="icon" viewBox="0 0 1024 1024" version="1.1" xmlns="http://www.w3.org/2000/svg" p-id="3762" width="200" height="200" xmlns:xlink="http://www.w3.org/1999/xlink"><path d="M512 422.4c-70.4 0-128 57.6-128 128s57.6 128 128 128 128-57.6 128-128-57.6-128-128-128z" p-id="3763" fill="#515151"></path><path d="M940.8 198.4h-208V144c0-19.2-16-38.4-38.4-38.4h-368c-19.2 0-38.4 16-38.4 38.4v54.4H80c-28.8 0-51.2 22.4-51.2 51.2v620.8c0 28.8 22.4 51.2 51.2 51.2h860.8c28.8 0 51.2-22.4 51.2-51.2V249.6c0-28.8-22.4-51.2-51.2-51.2zM512 771.2c-121.6 0-220.8-99.2-220.8-220.8 0-121.6 99.2-220.8 220.8-220.8s220.8 99.2 220.8 220.8c0 121.6-99.2 220.8-220.8 220.8z m368-460.8H732.8v-35.2H880v35.2z" p-id="3764" fill="#515151"></path></svg>