<?xml version="1.0" standalone="no"?><!DOCTYPE svg PUBLIC "-//W3C//DTD SVG 1.1//EN" "http://www.w3.org/Graphics/SVG/1.1/DTD/svg11.dtd"><svg t="1714314191904" class="icon" viewBox="0 0 1024 1024" version="1.1" xmlns="http://www.w3.org/2000/svg" p-id="9782" xmlns:xlink="http://www.w3.org/1999/xlink" width="200" height="200"><path d="M591.354324 554.912639m0 31.787139l0 220.239468q0 31.78714-31.78714 31.78714l0 0q-31.78714 0-31.78714-31.78714l0-220.239468q0-31.78714 31.78714-31.787139l0 0q31.78714 0 31.78714 31.787139Z" fill="#0A71EF" opacity=".48" p-id="9783"></path><path d="M1.135255 688.475388m31.78714 0l277.002217 0q31.78714 0 31.78714 31.78714l0 0q0 31.78714-31.78714 31.787139l-277.002217 0q-31.78714 0-31.78714-31.787139l0 0q0-31.78714 31.78714-31.78714Z" fill="#FF7733" p-id="9784"></path><path d="M809.323282 1021.72949h-563.086475A131.859867 131.859867 0 0 1 114.660754 889.869623a33.262971 33.262971 0 1 1 66.525942 0 65.220399 65.220399 0 0 0 65.050111 65.220399h563.086475a65.220399 65.220399 0 0 0 65.05011-65.220399V488.613747a65.220399 65.220399 0 0 0-65.05011-65.220399h-563.086475a65.220399 65.220399 0 0 0-65.050111 65.220399v81.397783a33.262971 33.262971 0 1 1-66.525942 0V488.613747a131.859867 131.859867 0 0 1 131.576053-131.859867h563.086475a131.859867 131.859867 0 0 1 131.576053 131.859867v401.028825A131.859867 131.859867 0 0 1 809.323282 1021.72949z" fill="#0A71EF" p-id="9785"></path><path d="M753.809313 425.834146a33.319734 33.319734 0 0 1-33.319734-33.319734v-158.935698a166.882483 166.882483 0 0 0-166.712195-166.712195H501.782705a166.882483 166.882483 0 0 0-166.712195 166.712195v158.935698a33.376497 33.376497 0 1 1-66.696231 0v-158.935698A233.635477 233.635477 0 0 1 501.725942 0.227051h51.994679a233.635477 233.635477 0 0 1 233.351663 233.351663v158.935698a33.319734 33.319734 0 0 1-33.262971 33.319734z" fill="#0A71EF" p-id="9786"></path></svg>