<?xml version="1.0" standalone="no"?><!DOCTYPE svg PUBLIC "-//W3C//DTD SVG 1.1//EN" "http://www.w3.org/Graphics/SVG/1.1/DTD/svg11.dtd"><svg t="1714314294875" class="icon" viewBox="0 0 1024 1024" version="1.1" xmlns="http://www.w3.org/2000/svg" p-id="14311" xmlns:xlink="http://www.w3.org/1999/xlink" width="200" height="200"><path d="M896 234.666667H128V149.333333h768v85.333334zM341.333333 661.333333H128v-85.333333h213.333333v85.333333zM426.666667 448H128v-85.333333h298.666667v85.333333zM426.666667 874.666667H128v-85.333334h298.666667v85.333334z" fill="#000000" p-id="14312"></path><path d="M682.666667 448a170.666667 170.666667 0 1 0 0 341.333333 170.666667 170.666667 0 0 0 0-341.333333z m-256 170.666667c0-141.376 114.624-256 256-256s256 114.624 256 256-114.624 256-256 256-256-114.624-256-256z m213.333333 0v-128h85.333333v106.666666h85.333334v85.333334h-170.666667v-64z" fill="#0078FF" p-id="14313"></path></svg>