<?xml version="1.0" standalone="no"?><!DOCTYPE svg PUBLIC "-//W3C//DTD SVG 1.1//EN" "http://www.w3.org/Graphics/SVG/1.1/DTD/svg11.dtd"><svg t="1714314102028" class="icon" viewBox="0 0 1125 1024" version="1.1" xmlns="http://www.w3.org/2000/svg" p-id="6215" xmlns:xlink="http://www.w3.org/1999/xlink" width="219.7265625" height="200"><path d="M684.798373 25.66848l102.673919 207.639667a91.673142 91.673142 0 0 0 69.213223 50.420228l229.182855 33.460697a45.836571 45.836571 0 0 1 25.210114 77.922171l-165.470021 161.803096a91.673142 91.673142 0 0 0-26.585212 81.130731l38.961086 229.182856a45.836571 45.836571 0 0 1-66.463028 48.586765l-204.889473-107.715942a91.673142 91.673142 0 0 0-85.256023 0l-205.347838 107.715942a45.836571 45.836571 0 0 1-66.463029-48.586765l39.419452-229.182856a91.673142 91.673142 0 0 0-26.585212-81.130731L176.470799 395.111243a45.836571 45.836571 0 0 1 25.66848-77.922171l229.182855-33.460697a91.673142 91.673142 0 0 0 68.754857-50.420228L602.75091 25.66848a45.836571 45.836571 0 0 1 82.047463 0z" fill="#51F2F2" p-id="6216"></path><path d="M793.889412 1023.988999a87.547851 87.547851 0 0 1-42.628011-10.542411l-204.431107-107.257577a45.836571 45.836571 0 0 0-42.628011 0l-203.972742 107.257577a91.673142 91.673142 0 0 1-132.467691-96.2568l38.961086-229.182855a45.836571 45.836571 0 0 0-13.292606-40.336183L27.960308 489.992945a91.673142 91.673142 0 0 1 50.420229-156.302707l229.182855-33.002331a45.836571 45.836571 0 0 0 33.919063-24.751749L443.698009 68.754857A91.673142 91.673142 0 0 1 525.745471 17.417897a91.673142 91.673142 0 0 1 82.047462 51.33696l102.215554 206.722936a45.836571 45.836571 0 0 0 34.377428 25.210114l229.182856 33.002331a91.673142 91.673142 0 0 1 50.420228 156.302707 45.836571 45.836571 0 0 1-63.712834-65.546296l-229.182855-33.002331A137.509713 137.509713 0 0 1 627.961025 316.272341l-102.215554-207.181302L423.988283 316.272341a137.509713 137.509713 0 0 1-103.590651 75.171977l-229.182855 33.002331 165.928387 157.219439a137.509713 137.509713 0 0 1 39.419451 121.466913l-38.961085 229.182856 203.972741-107.715942a137.509713 137.509713 0 0 1 127.884034 0l204.431107 107.257576-39.419451-229.182855a137.509713 137.509713 0 0 1 39.419451-121.466914l67.37976-65.546297a45.836571 45.836571 0 0 1 64.629565 0 45.836571 45.836571 0 0 1 0 64.629566l-66.921394 65.546296a45.836571 45.836571 0 0 0-13.292606 40.336183l38.961086 229.182856a91.673142 91.673142 0 0 1-36.210891 91.673142 91.673142 91.673142 0 0 1-54.54552 16.959531z" fill="#333333" p-id="6217"></path></svg>