<?xml version="1.0" standalone="no"?><!DOCTYPE svg PUBLIC "-//W3C//DTD SVG 1.1//EN" "http://www.w3.org/Graphics/SVG/1.1/DTD/svg11.dtd"><svg t="1715323693730" class="icon" viewBox="0 0 1024 1024" version="1.1" xmlns="http://www.w3.org/2000/svg" p-id="6566" xmlns:xlink="http://www.w3.org/1999/xlink" width="200" height="200"><path d="M927.8464 120.1152c-35.6352-35.5328-101.9904-22.6304-202.24 40.448l-1.6384 1.6384c-64.7168-35.5328-137.5232-56.6272-215.2448-56.6272-239.4112 0-433.5616 194.1504-433.5616 433.664 0 79.2576 20.992 153.7024 58.2656 216.7808-59.904 98.7136-71.168 163.4304-37.2736 197.3248 8.0896 8.0896 24.2688 19.456 51.8144 19.456 37.1712 0 88.9856-20.992 147.2512-56.6272 63.0784 33.9968 135.8848 54.9888 213.504 54.9888 239.5136 0 433.664-194.1504 433.664-433.5616 0-76.0832-19.456-148.8896-54.9888-211.968 53.3504-87.3472 79.2576-165.0688 40.448-205.5168zM777.216 193.7408c58.4704-32.6656 87.552-37.5808 99.6352-37.5808 3.584 0 6.5536 0.4096 8.9088 1.2288l4.608 1.536 1.7408 4.5056c8.2944 22.1184-15.1552 71.4752-36.2496 108.9536l-7.4752 13.2096-9.4208-11.776a400.7424 400.7424 0 0 0-63.1808-63.1808l-11.8784-9.5232 13.312-7.3728zM241.9712 882.9952c-39.1168 22.2208-72.3968 34.9184-91.4432 34.9184-4.5056 0-8.2944-0.7168-11.4688-2.048l-4.1984-1.8432-1.4336-4.3008c-2.048-6.144-5.7344-31.5392 33.0752-101.9904l7.4752-13.6192 9.5232 12.1856c18.0224 22.9376 39.5264 42.3936 60.1088 60.0064l11.0592 9.5232-12.6976 7.168z m52.9408-32.1536l-5.632-3.9936c-99.9424-70.656-159.6416-185.6512-159.6416-307.6096 0-209.1008 170.0864-379.1872 379.0848-379.1872 123.5968 0 239.2064 60.3136 309.3504 161.3824l4.096 5.7344-3.9936 5.8368c-57.2416 84.8896-138.24 180.5312-234.1888 276.48-124.6208 126.5664-222.8224 199.0656-283.2384 237.6704l-5.8368 3.6864z m213.8112 65.8432c-54.272 0-107.8272-11.4688-154.7264-33.28l-15.872-7.3728 14.2336-10.24c83.0464-59.5968 178.688-141.7216 262.4512-225.3824 83.456-83.456 163.84-177.3568 220.4672-257.6384l10.24-14.4384 7.4752 16.0768c21.8112 46.8992 33.28 100.4544 33.28 154.8288 0 208.0768-169.3696 377.4464-377.5488 377.4464z" fill="#ffffff" p-id="6567"></path><path d="M462.9504 298.9056a49.21344 49.21344 0 0 0 98.4064 0c0-17.6128-9.4208-33.8944-24.576-42.7008a49.21344 49.21344 0 0 0-49.2544 0c-15.1552 8.8064-24.576 25.088-24.576 42.7008z m0 0M307.6096 513.9456c0 7.2704 3.8912 13.9264 10.1376 17.5104 6.2464 3.584 14.0288 3.584 20.2752 0a20.1728 20.1728 0 0 0 0-35.0208c-6.2464-3.584-14.0288-3.584-20.2752 0-6.2464 3.584-10.1376 10.24-10.1376 17.5104z m0 0M647.2704 688.0256c0 10.24 5.5296 19.7632 14.336 24.8832 8.9088 5.12 19.8656 5.12 28.7744 0a28.672 28.672 0 0 0 14.336-24.8832c0-10.24-5.5296-19.7632-14.336-24.8832-8.9088-5.12-19.8656-5.12-28.7744 0-8.8064 5.12-14.336 14.6432-14.336 24.8832z m0 0M348.5696 677.7856c0 7.2704 3.8912 13.9264 10.1376 17.5104 6.2464 3.584 14.0288 3.584 20.2752 0a20.1728 20.1728 0 0 0 0-35.0208c-6.2464-3.584-14.0288-3.584-20.2752 0-6.2464 3.584-10.1376 10.24-10.1376 17.5104z m0 0" fill="#ffffff" p-id="6568"></path></svg>